<?xml version="1.0" encoding="utf-8"?>
<!-- Generator: Adobe Illustrator 15.1.0, SVG Export Plug-In . SVG Version: 6.00 Build 0)  -->
<!DOCTYPE svg PUBLIC "-//W3C//DTD SVG 1.0//EN" "http://www.w3.org/TR/2001/REC-SVG-20010904/DTD/svg10.dtd">
<svg version="1.0" id="Layer_1" xmlns="http://www.w3.org/2000/svg" xmlns:xlink="http://www.w3.org/1999/xlink" x="0px" y="0px"
	 width="820px" height="300px" viewBox="0 0 205 75" enable-background="new 0 0 205 75" xml:space="preserve">
<g>
	<path fill="#003262" d="M8.684,68.421c0-1.056-0.792-1.451-2.474-1.897c-1.469-0.396-3.085-1.022-3.085-3.019
		c0-1.731,1.402-2.902,3.447-2.902c1.188,0,2.26,0.297,3.25,0.907L9.328,62.73c-0.792-0.528-1.814-0.858-2.738-0.858
		c-1.484,0-2.095,0.677-2.095,1.534c0,1.039,0.874,1.402,2.507,1.848c1.501,0.396,3.035,1.121,3.035,3.068
		c0,1.781-1.468,3.084-3.629,3.084c-1.204,0-2.458-0.347-3.447-0.973l0.462-1.271c0.874,0.577,1.814,0.989,3.019,0.989
		C7.744,70.152,8.684,69.443,8.684,68.421z"/>
	<path fill="#003262" d="M19.919,62.73c-0.907-0.594-1.748-0.875-2.82-0.875c-2.243,0-3.744,1.551-3.744,4.107
		s1.517,4.189,3.777,4.189c1.104,0,2.193-0.445,2.919-1.006l0.231,1.402c-0.842,0.527-2.029,0.857-3.184,0.857
		c-3.019,0-5.163-2.095-5.163-5.377s2.161-5.427,5.163-5.427c1.171,0,2.425,0.33,3.266,0.857L19.919,62.73z"/>
	<path fill="#003262" d="M29.952,71.159v-4.553h-5.658v4.553h-1.402V60.85h1.402v4.486h5.658V60.85h1.385v10.31H29.952z"/>
	<path fill="#003262" d="M39.077,71.406c-3.019,0-5.18-2.111-5.18-5.377c0-3.085,2.145-5.427,5.18-5.427
		c3.019,0,5.179,2.095,5.179,5.36C44.255,69.048,42.112,71.406,39.077,71.406z M39.043,61.855c-2.194,0-3.728,1.634-3.728,4.107
		c0,2.54,1.533,4.189,3.793,4.189c2.194,0,3.745-1.649,3.745-4.123C42.854,63.489,41.303,61.855,39.043,61.855z"/>
	<path fill="#003262" d="M51.452,71.406c-3.019,0-5.18-2.111-5.18-5.377c0-3.085,2.145-5.427,5.18-5.427
		c3.019,0,5.179,2.095,5.179,5.36C56.63,69.048,54.487,71.406,51.452,71.406z M51.418,61.855c-2.194,0-3.728,1.634-3.728,4.107
		c0,2.54,1.533,4.189,3.793,4.189c2.194,0,3.745-1.649,3.745-4.123C55.229,63.489,53.678,61.855,51.418,61.855z"/>
	<path fill="#003262" d="M59.191,71.159V60.85h1.402v8.989h4.981v1.32H59.191z"/>
	<path fill="#003262" d="M76.564,71.406c-3.019,0-5.18-2.111-5.18-5.377c0-3.085,2.145-5.427,5.18-5.427
		c3.019,0,5.179,2.095,5.179,5.36C81.743,69.048,79.598,71.406,76.564,71.406z M76.531,61.855c-2.194,0-3.728,1.634-3.728,4.107
		c0,2.54,1.533,4.189,3.793,4.189c2.194,0,3.745-1.649,3.745-4.123C80.341,63.489,78.791,61.855,76.531,61.855z"/>
	<path fill="#003262" d="M84.303,60.85h6.367v1.319h-4.965v3.349h4.107v1.304h-4.107v4.338h-1.402V60.85z"/>
	<path fill="#003262" d="M97.089,71.159V60.85h1.386v10.31H97.089z"/>
	<path fill="#003262" d="M109.528,60.85h1.369v10.408h-1.518l-5.526-8.412v8.313h-1.369V60.85h1.55l5.493,8.313V60.85z"/>
	<path fill="#003262" d="M114.167,60.85h6.367v1.319h-4.965v3.349h4.107v1.304h-4.107v4.338h-1.402V60.85z"/>
	<path fill="#003262" d="M127.135,71.406c-3.019,0-5.18-2.111-5.18-5.377c0-3.085,2.145-5.427,5.18-5.427
		c3.019,0,5.179,2.095,5.179,5.36C132.313,69.048,130.17,71.406,127.135,71.406z M127.102,61.855c-2.194,0-3.728,1.634-3.728,4.107
		c0,2.54,1.533,4.189,3.793,4.189c2.194,0,3.745-1.649,3.745-4.123C130.912,63.489,129.361,61.855,127.102,61.855z"/>
	<path fill="#003262" d="M136.111,71.159h-1.402V60.85c0,0,3.068,0,3.085,0c2.49,0,3.794,1.188,3.794,3.019
		c0,1.551-0.907,2.507-2.326,2.969l2.788,4.322h-1.666l-2.508-4.091l-1.765,0.115V71.159z M137.811,65.897
		c1.353-0.05,2.375-0.693,2.375-1.963c0-1.221-0.989-1.798-2.557-1.798h-1.518v3.81L137.811,65.897z"/>
	<path fill="#003262" d="M153.417,62.582l-3.134,8.429h-1.402l-3.15-8.445l-0.115,8.594h-1.369l0.347-10.31h1.864l3.167,8.479
		l3.15-8.479h1.831l0.329,10.31h-1.418L153.417,62.582z"/>
	<path fill="#003262" d="M166.172,71.159h-1.436l-0.973-2.705h-4.471l-0.973,2.705h-1.452l3.877-10.31h1.6L166.172,71.159z
		 M161.537,62.301l-1.782,4.883h3.547L161.537,62.301z"/>
	<path fill="#003262" d="M171.502,62.169v8.99h-1.386v-8.99h-3.612V60.85h8.61v1.319H171.502z"/>
	<path fill="#003262" d="M176.932,71.159V60.85h1.386v10.31H176.932z"/>
	<path fill="#003262" d="M186.104,71.406c-3.019,0-5.18-2.111-5.18-5.377c0-3.085,2.145-5.427,5.18-5.427
		c3.019,0,5.179,2.095,5.179,5.36C191.283,69.048,189.139,71.406,186.104,71.406z M186.071,61.855c-2.194,0-3.728,1.634-3.728,4.107
		c0,2.54,1.533,4.189,3.793,4.189c2.194,0,3.745-1.649,3.745-4.123C189.882,63.489,188.331,61.855,186.071,61.855z"/>
	<path fill="#003262" d="M200.475,60.85h1.369v10.408h-1.518l-5.526-8.412v8.313h-1.369V60.85h1.551l5.493,8.313V60.85z"/>
</g>
<g>
	<path fill="#FDB515" d="M85.623,28.833c1.708,0,3.482-0.428,5.946-0.822c0.362-0.065,0.395-0.131,0.395-0.329
		c0-0.821-1.938-3.252-3.45-3.252c-2.497,0-3.286,3.745-3.286,4.205C85.228,28.8,85.228,28.833,85.623,28.833z"/>
	<path fill="#FDB515" d="M123.933,28.833c1.707,0,3.481-0.428,5.946-0.822c0.361-0.065,0.395-0.131,0.395-0.329
		c0-0.821-1.938-3.252-3.45-3.252c-2.497,0-3.285,3.745-3.285,4.205C123.538,28.8,123.538,28.833,123.933,28.833z"/>
	<path fill="#FDB515" d="M71.031,25.778c-1.058,0-1.36,0.151-1.36,0.982v6.761c0,0.341,0.113,2.455,0.453,2.833
		c0.416,0.453,1.624,0.718,2.833,0.718c2.87,0,4.986-1.965,4.986-5.25C77.943,28.422,75.147,25.778,71.031,25.778z"/>
	<path fill="#FDB515" d="M71.068,25.061c2.304,0,3.891,0.227,3.891,0.227c1.095-0.831,2.342-1.549,2.342-4.533
		c0-1.889-1.586-5.515-5.024-5.515c-2.493,0-2.606,0.34-2.606,1.095v8.197C69.67,25.137,70.161,25.061,71.068,25.061z"/>
	<path fill="#FDB515" d="M2.917,3.255v47.521h199.08V3.255H2.917z M32.692,15.333c-1.254,0-1.786,0.076-1.786,3.381
		c0,1.938-0.038,4.75-0.038,9.575c0,5.585-0.874,7.029-3.078,8.359c-1.52,0.912-3.116,1.33-5.851,1.33
		c-3.306,0-7.295-0.608-8.701-3.838c-0.532-1.216-0.57-3.115-0.57-5.319V17.575c0-1.216-0.076-2.318-1.254-2.318
		c-1.824,0-1.9-0.228-1.9-0.57c0-0.266,0.076-0.342,0.836-0.342c0.836,0,1.52,0.038,3.306,0.038c1.596,0,3.685-0.038,4.445-0.038
		c0.342,0,0.57,0.038,0.57,0.38c0,0.304-0.152,0.532-1.444,0.532s-1.406,0.038-1.406,1.14V29.81c0,1.52,0.076,2.963,0.57,3.875
		c0.988,1.862,2.888,3.153,6.725,3.153c1.52,0,3.191-0.38,3.914-0.798c2.355-1.405,2.963-2.355,2.963-7.674
		c0-13.032-0.57-13.07-1.52-13.07c-1.216,0-1.9-0.228-1.9-0.57s0.038-0.342,1.292-0.342c0.646,0,1.216,0.076,2.318,0.076
		c0.95,0,2.014-0.038,2.508-0.038c1.253,0,1.253,0,1.253,0.342C33.946,15.105,33.832,15.333,32.692,15.333z M45.576,37.864
		c-6.079,0-11.094-3.229-11.094-11.057c0-7.485,5.357-12.918,15.692-12.918c3.268,0,4.825,0.57,5.395,0.57
		c0.114,0,0.304,0.228,0.304,0.418c0,0.494-0.19,1.026-0.19,2.66c0,0.19-0.038,0.304-0.19,0.304c-0.266,0-0.342-0.19-0.418-0.494
		c-0.228-1.216-2.926-2.47-6.953-2.47c-6.155,0-10.411,4.483-10.411,11.512c0,2.66,0.722,4.749,1.9,6.421
		c1.899,2.698,4.749,4.104,8.321,4.104c3.571,0,6.801-2.621,6.991-3.571c0.114-0.494,0.38-1.368,0.646-1.368
		c0.114,0,0.152,0.418,0.342,0.798c0.266,0.57,0.684,1.141,0.684,1.33C56.594,34.444,52.871,37.864,45.576,37.864z M72.768,37.753
		c-1.586,0-3.173-0.378-4.835-0.378c-1.586,0-2.417,0.151-3.626,0.151c-0.378,0-0.642-0.038-0.642-0.415
		c0-0.378,0.227-0.454,1.057-0.454c1.7,0,1.776-0.075,1.776-0.642V18.639c0-2.983-0.605-3.324-1.662-3.324
		c-1.7,0-1.851-0.038-1.851-0.491c0-0.264,0.113-0.302,0.755-0.302c1.171,0,2.342,0.038,3.664,0.038
		c0.793,0,2.607-0.227,6.006-0.227c4.911,0,7.026,2.53,7.026,5.212s-1.625,4.004-2.833,4.835c-0.718,0.491-1.549,0.907-1.549,1.02
		c0,0.075,0.718,0.264,1.474,0.642c1.775,0.907,4.004,2.191,4.004,5.478C81.531,35.751,78.019,37.753,72.768,37.753z M91.077,36.225
		c2.168,0,3.351-0.789,3.548-0.789c0.164,0,0.263,0.197,0.263,0.263c0,0.164-2.792,2.234-5.455,2.234
		c-2.693,0-6.702-1.314-6.702-6.801c0-4.633,3.121-7.393,6.11-7.393c1.709,0,3.812,1.084,4.994,2.464
		c0.559,0.657,1.084,1.445,1.084,1.708c0,0.131-0.459,0.263-1.347,0.46c-0.854,0.197-4.14,0.92-7.885,1.15
		c-0.526,0.033-0.625,0.197-0.625,0.953C85.063,35.01,88.579,36.225,91.077,36.225z M105.599,27.485
		c-0.46,0-0.854-1.347-2.498-1.347c-1.905,0-2.628,0.788-2.628,2.168v6.769c0,1.61,0.099,1.61,2.53,1.61
		c0.854,0,0.887,0.099,0.887,0.394c0,0.362-0.033,0.329-0.887,0.329c-0.46,0-2.662-0.165-3.713-0.165
		c-1.117,0-2.234,0.165-2.694,0.165c-0.756,0-0.822,0-0.822-0.329c0-0.329,0.033-0.394,0.822-0.394c1.347,0,1.445-0.033,1.445-0.493
		V27.19c0-2.234,0.065-2.299-1.774-2.299c-0.592,0-0.592,0.033-0.592-0.329c0-0.395-0.033-0.493,0.526-0.493
		c1.117,0,1.741,0.066,2.398,0.066c0.525,0,1.149-0.164,1.676-0.164c0.131,0,0.263,0.098,0.263,0.362
		c0,0.164-0.066,0.887-0.066,0.985c0,0.295,0.033,0.525,0.165,0.525c0.493,0,2.037-1.708,3.581-1.708
		c0.592,0,2.103,0.723,2.103,1.577C106.32,26.04,105.795,27.485,105.599,27.485z M121.139,37.54c-0.395,0-0.821-0.033-1.116-0.033
		c-0.395,0-1.381,0.033-1.84,0.033c-0.593,0-0.888-0.822-2.268-2.399s-2.761-3.647-2.958-3.647c-0.131,0-0.591,0.329-1.149,0.69
		c-0.525,0.329-0.985,0.559-0.985,0.855v2.069c0,1.544-0.066,1.544,1.971,1.544c0.756,0,0.887,0.165,0.887,0.427
		c0,0.329-0.164,0.329-0.887,0.329c-0.492,0-2.004-0.066-3.055-0.066c-1.118,0-2.333,0.066-2.793,0.066
		c-0.756,0-0.953-0.033-0.953-0.329c0-0.263,0.164-0.427,0.953-0.427c1.116,0,1.412,0,1.412-0.493c0-0.953,0.099-10.678,0.099-17.61
		c0-2.333-0.263-2.628-1.149-2.628c-1.347,0-1.479-0.099-1.479-0.329c0-0.329,0.065-0.46,0.427-0.46c2.365,0,4.304-0.723,4.6-0.723
		c0.165,0,0.23,0.099,0.23,0.296c0,0.427-0.065,1.807-0.065,2.858c0,4.994-0.197,8.674-0.197,14.029c0,0.132,0.032,0.23,0.131,0.23
		c0.821,0,4.239-3.022,5.291-4.009c1.281-1.215,1.576-1.774,1.576-2.464c0-0.525-0.099-0.591-1.544-0.591
		c-0.493,0-0.657-0.066-0.657-0.361c0-0.263,0.164-0.329,0.592-0.329c0.328,0,0.952,0.099,1.347,0.099
		c0.427,0,2.333-0.099,2.727-0.099c0.264,0,0.395,0.033,0.395,0.131c0,0.296-1.116,1.709-2.135,2.695
		c-1.644,1.61-3.681,3.055-3.681,3.285c0,0.296,0.592,0.92,2.892,3.68c1.117,1.347,2.168,2.957,3.285,2.957
		c0.788,0,1.052,0.165,1.052,0.427C122.092,37.474,121.861,37.54,121.139,37.54z M127.743,37.934c-2.694,0-6.702-1.314-6.702-6.801
		c0-4.633,3.121-7.393,6.111-7.393c1.708,0,3.811,1.084,4.994,2.464c0.558,0.657,1.084,1.445,1.084,1.708
		c0,0.131-0.46,0.263-1.348,0.46c-0.854,0.197-4.14,0.92-7.885,1.15c-0.525,0.033-0.624,0.197-0.624,0.953
		c0,4.534,3.515,5.75,6.012,5.75c2.168,0,3.352-0.789,3.549-0.789c0.164,0,0.263,0.197,0.263,0.263
		C133.197,35.863,130.404,37.934,127.743,37.934z M139.117,37.408c-0.493,0-1.215-0.066-1.808-0.066
		c-1.116,0-2.857,0.066-3.317,0.066c-0.756,0-0.822-0.066-0.822-0.329c0-0.23,0.033-0.427,0.822-0.427
		c1.347,0,1.905,0.033,1.905-0.559V17.991c0-2.07-0.197-2.07-1.675-2.07c-0.592,0-0.921-0.065-0.921-0.428
		c0-0.394,0.263-0.361,0.822-0.394c2.563-0.164,3.811-0.723,4.008-0.723c0.164,0,0.328,0.164,0.328,0.525
		c0,0.394-0.164,1.578-0.164,2.563c0,12.518-0.164,15.113-0.164,16.066c0,2.727,0.229,3.088,0.821,3.088
		c1.643,0,1.577,0.197,1.577,0.46C140.53,37.408,140.3,37.408,139.117,37.408z M139.99,31.133c0-4.633,3.122-7.393,6.112-7.393
		c1.708,0,3.812,1.084,4.994,2.464c0.559,0.657,1.084,1.445,1.084,1.708c0,0.131-0.461,0.263-1.347,0.46
		c-0.854,0.197-4.141,0.92-7.886,1.15c-0.525,0.033-0.625,0.197-0.625,0.953c0,4.534,3.517,5.75,6.013,5.75
		c2.169,0,3.352-0.789,3.549-0.789c0.164,0,0.263,0.197,0.263,0.263c0,0.164-2.793,2.234-5.454,2.234
		C143.999,37.934,139.99,36.619,139.99,31.133z M165.717,24.857c-0.724,0-2.169,3.943-4.764,10.25
		c-2.071,5.027-3.549,7.688-4.601,9.857c-0.36,0.723-0.756,0.755-1.479,0.854c-0.985,0.131-1.215,0.394-1.938,0.394
		c-0.56,0-0.888-0.164-0.888-0.328c0-0.197,1.544-0.395,2.661-1.808c1.183-1.479,4.009-5.355,4.009-6.34
		c0-0.362-2.629-6.44-4.436-10.711c-0.821-1.971-1.052-2.135-1.643-2.135c-0.658,0-0.69-0.033-0.69-0.329
		c0-0.295,0.099-0.46,0.69-0.46c0.919,0,1.149,0.065,1.938,0.065c0.92,0,2.07-0.099,3.121-0.099c0.69,0,0.821,0.131,0.821,0.493
		c0,0.296-0.131,0.329-0.821,0.329c-0.788,0-0.985,0.197-0.985,0.953c0,0.953,0.854,2.103,2.825,7.163
		c0.264,0.69,0.658,1.249,0.789,1.249c0.229,0,0.428-0.46,0.953-2.004c0.788-2.365,1.971-5.783,1.971-6.242
		c0-0.985,0-1.183-1.117-1.183c-1.018,0-1.149,0-1.149-0.329c0-0.428,0.099-0.428,0.689-0.428c0.888,0,1.479,0.066,2.366,0.066
		c0.493,0,1.38-0.131,1.84-0.131c0.525,0,0.689,0.033,0.689,0.395C166.57,24.693,166.11,24.857,165.717,24.857z"/>
	<path fill="#FDB515" d="M142.882,28.833c1.709,0,3.483-0.428,5.947-0.822c0.361-0.065,0.396-0.131,0.396-0.329
		c0-0.821-1.94-3.252-3.451-3.252c-2.496,0-3.285,3.745-3.285,4.205C142.488,28.8,142.488,28.833,142.882,28.833z"/>
</g>
</svg>
